<?xml version="1.0"?>
<svg xmlns="http://www.w3.org/2000/svg" xmlns:xlink="http://www.w3.org/1999/xlink" version="1.1" viewBox="0 0 192 192" width="25px" height="25px"><g fill="none" fill-rule="nonzero" stroke="none" stroke-width="1" stroke-linecap="butt" stroke-linejoin="miter" stroke-miterlimit="10" stroke-dasharray="" stroke-dashoffset="0" font-family="none" font-weight="none" font-size="none" text-anchor="none" style="mix-blend-mode: normal"><path d="M0,192v-192h192v192z" fill="none"/><g><g id="surface1"><path d="M168,148c0,11.04688 -8.95312,20 -20,20h-104c-11.04688,0 -20,-8.95312 -20,-20v-104c0,-11.04688 8.95312,-20 20,-20h104c11.04688,0 20,8.95312 20,20z" fill="#ffffff"/><path d="M137.46875,100h-13.46875v52h-20v-52h-12v-16h12v-9.64062c0.01562,-14.03125 5.84375,-22.35938 22.375,-22.35938h13.625v16h-9.14062c-6.4375,0 -6.85938,2.40625 -6.85938,6.89062v9.10938h16z" fill="#3f51b5"/></g></g></g></svg>
